<svg viewBox="0 0 52.9958 36.225" xmlns="http://www.w3.org/2000/svg" xmlns:xlink="http://www.w3.org/1999/xlink" width="52.995789" height="36.224976" fill="none" customFrame="#000000">
	<path id="Vector 51" d="M51.9895 35.2187L21.6616 35.2187L1.00623 35.2187L1.00623 1.00623L21.6616 1.00623L51.9895 1.00623L51.9895 35.2187ZM21.6616 1.00623L21.6616 35.2187M6.12328 18.018L15.983 18.018M6.12328 25.6417L15.983 25.6417M6.12328 10.1422L15.983 10.1422M41.9439 7.99994L32.1454 27.2169M42.5667 27.784C40.2576 27.784 38.3857 25.8657 38.3857 23.4995C38.3857 21.1333 40.2576 19.2151 42.5667 19.2151C44.8758 19.2151 46.7477 21.1333 46.7477 23.4995C46.7477 25.8657 44.8758 27.784 42.5667 27.784ZM31.3341 16.1908C29.025 16.1908 27.1531 14.2726 27.1531 11.9063C27.1531 9.54011 29.025 7.6219 31.3341 7.6219C33.6432 7.6219 35.5151 9.54011 35.5151 11.9063C35.5151 14.2726 33.6432 16.1908 31.3341 16.1908Z" opacity="0.899999976" fill-rule="evenodd" stroke="rgb(197,53,140)" stroke-linecap="round" stroke-linejoin="round" stroke-width="2.01249886" />
</svg>
