<svg viewBox="0 0 52.9955 37.5669" xmlns="http://www.w3.org/2000/svg" xmlns:xlink="http://www.w3.org/1999/xlink" width="52.995468" height="37.566895" fill="none" customFrame="#000000">
	<path id="Union" d="M0 0.997184C0 0.446455 0.446455 0 0.997184 0L11.8902 0L24.7642 0L35.1628 0C35.7136 0 36.16 0.446455 36.16 0.997184L36.16 5.93022L44.5709 5.93022C44.9999 5.93022 45.3808 6.20461 45.5167 6.61151L48.7553 16.3081L51.9982 16.3081C52.549 16.3081 52.9954 16.7546 52.9954 17.3053L52.9954 30.6483C52.9954 31.199 52.549 31.6455 51.9982 31.6455L50.4413 31.6455C49.957 34.994 47.0699 37.5669 43.5806 37.5669C39.9215 37.5669 36.9246 34.7375 36.6665 31.1513L35.163 31.1513L35.1629 31.1513L35.1628 31.1513L20.785 31.1513C20.5269 34.7375 17.5299 37.5669 13.8709 37.5669C10.2118 37.5669 7.21488 34.7375 6.95674 31.1513L0.997184 31.1513C0.446455 31.1513 0 30.7048 0 30.1541L0 0.997184ZM36.8099 29.1569C37.4933 26.0528 40.2651 23.7298 43.5806 23.7298C47.0698 23.7298 49.9569 26.3026 50.4413 29.6511L51.001 29.6511L51.001 18.3025L48.037 18.3025L36.1602 18.3025L36.1602 29.1569L36.8099 29.1569ZM34.1656 29.1569L20.6415 29.1569C19.9582 26.0528 17.1863 23.7298 13.8709 23.7298C10.5554 23.7298 7.78354 26.0528 7.10019 29.1569L1.99437 29.1569L1.99437 1.99437L10.893 1.99437L10.893 10.8809C10.893 11.2317 11.0774 11.5567 11.3785 11.7368C11.6796 11.9168 12.0532 11.9253 12.3622 11.7593L18.3272 8.55365L24.2922 11.7593C24.6012 11.9253 24.9748 11.9168 25.2759 11.7368C25.577 11.5567 25.7614 11.2317 25.7614 10.8809L25.7614 1.99437L34.1656 1.99437L34.1656 29.1569ZM36.16 16.3081L46.6526 16.3081L43.8526 7.92459L36.16 7.92459L36.16 16.3081ZM12.8874 1.99437L23.767 1.99437L23.767 9.21293L18.7992 6.54321C18.5045 6.3848 18.1499 6.3848 17.8552 6.54321L12.8874 9.21293L12.8874 1.99437ZM20.7966 17.7994C20.7966 17.2486 21.2431 16.8022 21.7938 16.8022L28.726 16.8022C29.2767 16.8022 29.7232 17.2486 29.7232 17.7994C29.7232 18.3501 29.2767 18.7966 28.726 18.7966L21.7938 18.7966C21.2431 18.7966 20.7966 18.3501 20.7966 17.7994ZM23.7744 22.7326C23.2237 22.7326 22.7772 23.179 22.7772 23.7298C22.7772 24.2805 23.2237 24.7269 23.7744 24.7269L28.7254 24.7269C29.2762 24.7269 29.7226 24.2805 29.7226 23.7298C29.7226 23.179 29.2762 22.7326 28.7254 22.7326L23.7744 22.7326ZM13.8709 35.5726C16.6016 35.5726 18.8087 33.3642 18.8087 30.6483C18.8087 27.9325 16.6016 25.7241 13.8709 25.7241C11.1401 25.7241 8.93308 27.9325 8.93308 30.6483C8.93308 33.3642 11.1401 35.5726 13.8709 35.5726ZM48.5184 30.6483C48.5184 33.3642 46.3114 35.5726 43.5806 35.5726C40.8499 35.5726 38.6428 33.3642 38.6428 30.6483C38.6428 27.9325 40.8499 25.7241 43.5806 25.7241C46.3114 25.7241 48.5184 27.9325 48.5184 30.6483Z" fill="rgb(197,53,140)" fill-rule="evenodd" />
</svg>
