<svg viewBox="0 0 53.6666 53.6666" xmlns="http://www.w3.org/2000/svg" xmlns:xlink="http://www.w3.org/1999/xlink" width="53.666626" height="53.666626" fill="none" customFrame="#000000">
	<path id="Union" d="M0.997184 0C0.446455 0 0 0.446453 0 0.997182L0 38.7602C0 39.311 0.446455 39.7574 0.997184 39.7574L24.1326 39.7574L24.1326 38.9094C24.212 47.0732 30.7928 53.6666 38.8992 53.6666C47.055 53.6666 53.6665 46.9927 53.6665 38.7601C53.6665 30.5465 47.0855 23.8845 38.9557 23.8538L40.3894 23.8538L40.3894 0.997182C40.3894 0.446453 39.9429 0 39.3922 0L0.997184 0ZM38.8427 23.8538L38.395 23.8538L38.395 1.99437L27.0985 1.99437L27.0985 10.9348C27.0985 11.2926 26.9069 11.6229 26.5962 11.8005C26.2856 11.9781 25.9037 11.9756 25.5954 11.7941L20.1748 8.60225L14.2715 11.8109C13.9625 11.9789 13.5879 11.9716 13.2856 11.7919C12.9833 11.6121 12.7981 11.2865 12.7981 10.9348L12.7981 1.99437L1.99437 1.99437L1.99437 37.763L24.1326 37.763L24.1326 38.6109C24.2118 30.466 30.7622 23.8843 38.8427 23.8538ZM14.7924 9.25781L14.7924 1.99437L25.1042 1.99437L25.1042 9.1904L20.7004 6.59733C20.3987 6.41966 20.0259 6.41326 19.7182 6.58048L14.7924 9.25781ZM6.90366 20.869C6.35293 20.869 5.90647 21.3154 5.90647 21.8662C5.90647 22.4169 6.35293 22.8634 6.90366 22.8634L17.7337 22.8634C18.2844 22.8634 18.7309 22.4169 18.7309 21.8662C18.7309 21.3154 18.2844 20.869 17.7337 20.869L6.90366 20.869ZM44.9673 36.533C45.3838 36.1726 45.4293 35.5429 45.069 35.1264C44.7086 34.7099 44.0789 34.6644 43.6624 35.0248L37.5829 40.2849L35.2698 37.1718C34.9414 36.7297 34.3167 36.6376 33.8747 36.9661C33.4326 37.2945 33.3405 37.9192 33.669 38.3612L36.6226 42.3365C36.788 42.5592 37.0386 42.7028 37.3143 42.7331C37.59 42.7633 37.8658 42.6774 38.0755 42.4959L44.9673 36.533ZM5.90647 29.8163C5.90647 29.2655 6.35293 28.8191 6.90366 28.8191L14.78 28.8191C15.3308 28.8191 15.7772 29.2655 15.7772 29.8163C15.7772 30.367 15.3308 30.8134 14.78 30.8134L6.90366 30.8134C6.35293 30.8134 5.90647 30.367 5.90647 29.8163ZM51.6976 38.7601C51.6976 45.895 45.9676 51.6791 38.8992 51.6791C31.8309 51.6791 26.1009 45.895 26.1009 38.7601C26.1009 31.6252 31.8309 25.8412 38.8992 25.8412C45.9676 25.8412 51.6976 31.6252 51.6976 38.7601Z" fill="rgb(197,53,140)" fill-rule="evenodd" />
</svg>
