<svg viewBox="0 0 51.6541 52.9957" xmlns="http://www.w3.org/2000/svg" xmlns:xlink="http://www.w3.org/1999/xlink" width="51.654144" height="52.995728" fill="none" customFrame="#000000">
	<path id="Vector 52" d="M1.00626 24.0895L1.00626 51.9895L39.6302 51.9895L39.6302 30.7517L28.7362 24.0895L27.8697 24.0895L1.00626 24.0895ZM39.6302 30.7517L50.6479 25.0278L50.6479 5.94817C50.6479 5.94817 49.0583 4.82523 48.2019 3.75979C47.3753 2.73144 46.5627 1.00623 46.5627 1.00623L32.7286 1.00623C32.7286 1.00623 32.3085 2.72753 31.5042 3.75979C30.664 4.83827 28.7362 5.94817 28.7362 5.94817L28.7362 24.0895M36.5353 15.1439L38.7636 17.1457L43.5916 13.0796M14.1904 29.4693L14.1904 36.976L6.63891 36.976L6.63891 29.4693L14.1904 29.4693ZM9.85757 42.9814L9.85757 45.9841L5.89614 45.9841L5.89614 42.9814L9.85757 42.9814ZM34.7403 42.9814L34.7403 45.9841L30.7789 45.9841L30.7789 42.9814L34.7403 42.9814ZM26.446 42.9814L26.446 45.9841L22.4846 45.9841L22.4846 42.9814L26.446 42.9814ZM18.1518 42.9814L18.1518 45.9841L14.1904 45.9841L14.1904 42.9814L18.1518 42.9814Z" fill-rule="evenodd" stroke="rgb(197,53,140)" stroke-linecap="round" stroke-linejoin="round" stroke-width="2.01249886" />
</svg>
