<svg viewBox="0 0 49.642 53.6666" xmlns="http://www.w3.org/2000/svg" xmlns:xlink="http://www.w3.org/1999/xlink" width="49.641968" height="53.666626" fill="none" customFrame="#000000">
	<path id="Union" d="M0 0.997184C0 0.446455 0.446455 0 0.997184 0L7.38295 0C7.86019 0 8.27053 0.338144 8.36175 0.80659L10.43 11.4283L48.6448 11.4283C49.1955 11.4283 49.642 11.8747 49.642 12.4255L49.642 19.8787L49.642 26.8351L49.642 33.7914C49.642 34.3421 49.1955 34.7886 48.6448 34.7886L13.7687 34.7886L8.38013 34.7886L8.38013 43.2287L48.6448 43.2287C49.1955 43.2287 49.642 43.6752 49.642 44.2259C49.642 44.7767 49.1955 45.2231 48.6448 45.2231L41.8406 45.2231C42.7072 46.1191 43.2414 47.3453 43.2414 48.6978C43.2414 51.442 41.0421 53.6666 38.3292 53.6666C35.6164 53.6666 33.4171 51.442 33.4171 48.6978C33.4171 47.3453 33.9513 46.1191 34.8179 45.2231L22.1917 45.2231C23.0583 46.1191 23.5925 47.3453 23.5925 48.6978C23.5925 51.442 21.3933 53.6666 18.6804 53.6666C15.9675 53.6666 13.7682 51.442 13.7682 48.6978C13.7682 47.3453 14.3024 46.1191 15.169 45.2231L7.38295 45.2231C6.83222 45.2231 6.38576 44.7767 6.38576 44.2259L6.38576 33.7914C6.38576 33.2407 6.83222 32.7942 7.38295 32.7942L12.5586 32.7942L11.4354 27.0256L10.0808 20.0693L8.62949 12.6161L6.56121 1.99437L0.997184 1.99437C0.446455 1.99437 0 1.54791 0 0.997184ZM14.5905 32.7942L47.6476 32.7942L47.6476 27.8322L13.6242 27.8322L14.5905 32.7942ZM13.2359 25.8379L47.6476 25.8379L47.6476 20.8759L12.2697 20.8759L13.2359 25.8379ZM11.8813 18.8815L47.6476 18.8815L47.6476 13.4227L10.8184 13.4227L11.8813 18.8815ZM18.6804 51.6722C20.2703 51.6722 21.5981 50.3622 21.5981 48.6978C21.5981 47.0334 20.2703 45.7233 18.6804 45.7233C17.0904 45.7233 15.7626 47.0334 15.7626 48.6978C15.7626 50.3622 17.0904 51.6722 18.6804 51.6722ZM41.247 48.6978C41.247 50.3622 39.9192 51.6722 38.3292 51.6722C36.7393 51.6722 35.4115 50.3622 35.4115 48.6978C35.4115 47.0334 36.7393 45.7233 38.3292 45.7233C39.9192 45.7233 41.247 47.0334 41.247 48.6978Z" fill="rgb(197,53,140)" fill-rule="evenodd" />
</svg>
