<svg viewBox="0 0 30 30" xmlns="http://www.w3.org/2000/svg" xmlns:xlink="http://www.w3.org/1999/xlink" width="30.000000" height="30.000000" fill="none">
	<rect id="Stroke 2/shopping-bag" width="30.000000" height="30.000000" x="0.000000" y="0.000000" fill="rgb(255,255,255)" fill-opacity="0" />
	<path id="Vector 26 (Stroke)" d="M24.7031 25.722L3.22199 5.13588C2.82325 4.75375 2.80978 4.12073 3.19191 3.72199C3.57403 3.32325 4.20706 3.30978 4.6058 3.69191L26.1919 24.3786L26.1919 7.44733C26.1919 6.89504 26.6396 6.44733 27.1919 6.44733C27.7442 6.44733 28.1919 6.89504 28.1919 7.44733L28.1919 26.722C28.1919 27.2743 27.7442 27.722 27.1919 27.722L7.03635 27.722C6.48406 27.722 6.03635 27.2743 6.03635 26.722C6.03635 26.1697 6.48406 25.722 7.03635 25.722L24.7031 25.722Z" fill="rgb(17,17,17)" fill-rule="evenodd" />
</svg>
