<svg viewBox="0 0 135 23" xmlns="http://www.w3.org/2000/svg" xmlns:xlink="http://www.w3.org/1999/xlink" width="135.000000" height="23.000000" fill="none" customFrame="#000000">
	<rect id="Property 1=Default" width="135.000000" height="23.000000" x="0.000000" y="0.000000" />
	<path id="В наличии" d="M34.7578 6.6333L38.3965 6.6333C40.002 6.6333 41.209 6.87354 42.0176 7.354C42.8262 7.83447 43.2305 8.65186 43.2305 9.80615C43.2305 10.3042 43.1338 10.7524 42.9404 11.1509C42.7529 11.5435 42.4775 11.8687 42.1143 12.1265C41.751 12.3843 41.3027 12.563 40.7695 12.6626L40.7695 12.7505C41.332 12.8384 41.8301 12.9995 42.2637 13.2339C42.6973 13.4683 43.0371 13.7964 43.2832 14.2183C43.5293 14.6401 43.6523 15.1763 43.6523 15.8267C43.6523 16.6177 43.4678 17.2856 43.0986 17.8306C42.7354 18.3755 42.2197 18.7886 41.5518 19.0698C40.8838 19.3452 40.0928 19.4829 39.1787 19.4829L34.7578 19.4829L34.7578 6.6333ZM36.252 12.144L38.7129 12.144C39.832 12.144 40.6055 11.9595 41.0332 11.5903C41.4668 11.2212 41.6836 10.6821 41.6836 9.97314C41.6836 9.24072 41.4258 8.71338 40.9102 8.39111C40.4004 8.06885 39.5859 7.90771 38.4668 7.90771L36.252 7.90771L36.252 12.144ZM36.252 13.4009L36.252 18.2085L38.9238 18.2085C40.0664 18.2085 40.875 17.9858 41.3496 17.5405C41.8242 17.0894 42.0615 16.4829 42.0615 15.7212C42.0615 15.2349 41.9531 14.8188 41.7363 14.4731C41.5254 14.1274 41.1797 13.8638 40.6992 13.6821C40.2246 13.4946 39.5889 13.4009 38.792 13.4009L36.252 13.4009ZM52.3184 9.8501L52.3184 13.8931L57.6885 13.8931L57.6885 9.8501L59.1475 9.8501L59.1475 19.4829L57.6885 19.4829L57.6885 15.1323L52.3184 15.1323L52.3184 19.4829L50.8506 19.4829L50.8506 9.8501L52.3184 9.8501ZM65.8447 9.69189C66.9932 9.69189 67.8457 9.94971 68.4023 10.4653C68.959 10.981 69.2373 11.8042 69.2373 12.9351L69.2373 19.4829L68.1738 19.4829L67.8926 18.0591L67.8223 18.0591C67.5527 18.4106 67.2715 18.7065 66.9785 18.9468C66.6855 19.1812 66.3457 19.3599 65.959 19.4829C65.5781 19.6001 65.1094 19.6587 64.5527 19.6587C63.9668 19.6587 63.4453 19.5562 62.9883 19.3511C62.5371 19.146 62.1797 18.8354 61.916 18.4194C61.6582 18.0034 61.5293 17.4761 61.5293 16.8374C61.5293 15.8765 61.9102 15.1382 62.6719 14.6226C63.4336 14.1069 64.5938 13.8257 66.1523 13.7788L67.8135 13.7085L67.8135 13.1196C67.8135 12.2876 67.6348 11.7046 67.2773 11.3706C66.9199 11.0366 66.416 10.8696 65.7656 10.8696C65.2617 10.8696 64.7812 10.9429 64.3242 11.0894C63.8672 11.2358 63.4336 11.4087 63.0234 11.6079L62.5752 10.5005C63.0088 10.2778 63.5068 10.0874 64.0693 9.9292C64.6318 9.771 65.2236 9.69189 65.8447 9.69189ZM67.7959 14.7368L66.3281 14.7983C65.127 14.8452 64.2803 15.0415 63.7881 15.3872C63.2959 15.7329 63.0498 16.2222 63.0498 16.855C63.0498 17.4058 63.2168 17.813 63.5508 18.0767C63.8848 18.3403 64.3271 18.4722 64.8779 18.4722C65.7334 18.4722 66.4336 18.2349 66.9785 17.7603C67.5234 17.2856 67.7959 16.5737 67.7959 15.6245L67.7959 14.7368ZM79.4678 19.4829L77.9824 19.4829L77.9824 11.0718L75.0557 11.0718C74.9385 12.5894 74.7891 13.8901 74.6074 14.9741C74.4316 16.0522 74.209 16.9341 73.9395 17.6196C73.6758 18.2993 73.3535 18.8003 72.9727 19.1226C72.5977 19.439 72.1494 19.5972 71.6279 19.5972C71.4697 19.5972 71.3203 19.5884 71.1797 19.5708C71.0391 19.5532 70.9189 19.5239 70.8193 19.4829L70.8193 18.3755C70.8955 18.3989 70.9746 18.4165 71.0566 18.4282C71.1445 18.4399 71.2354 18.4458 71.3291 18.4458C71.5928 18.4458 71.833 18.3374 72.0498 18.1206C72.2725 17.8979 72.4717 17.564 72.6475 17.1187C72.8291 16.6733 72.9902 16.1108 73.1309 15.4312C73.2715 14.7456 73.3945 13.9399 73.5 13.0142C73.6113 12.0825 73.708 11.0278 73.79 9.8501L79.4678 9.8501L79.4678 19.4829ZM83.9326 9.8501L83.9326 15.9058C83.9326 16.0229 83.9297 16.1753 83.9238 16.3628C83.918 16.5444 83.9092 16.7407 83.8975 16.9517C83.8857 17.1567 83.874 17.356 83.8623 17.5493C83.8564 17.7368 83.8477 17.8921 83.8359 18.0151L89.0918 9.8501L90.8848 9.8501L90.8848 19.4829L89.5225 19.4829L89.5225 13.5767C89.5225 13.3892 89.5254 13.1489 89.5312 12.856C89.5371 12.563 89.5459 12.2759 89.5576 11.9946C89.5693 11.7075 89.5781 11.4849 89.584 11.3267L84.3457 19.4829L82.5439 19.4829L82.5439 9.8501L83.9326 9.8501ZM95.2617 9.8501L95.2617 13.313C95.2617 13.9165 95.4258 14.3618 95.7539 14.6489C96.0879 14.936 96.5713 15.0796 97.2041 15.0796C97.8135 15.0796 98.3672 14.9858 98.8652 14.7983C99.3633 14.6108 99.8672 14.356 100.377 14.0337L100.377 9.8501L101.836 9.8501L101.836 19.4829L100.377 19.4829L100.377 15.1675C99.8379 15.5132 99.3076 15.7856 98.7861 15.9849C98.2646 16.1841 97.6406 16.2837 96.9141 16.2837C95.9238 16.2837 95.1562 16.0259 94.6113 15.5103C94.0723 14.9946 93.8027 14.2974 93.8027 13.4185L93.8027 9.8501L95.2617 9.8501ZM106.31 9.8501L106.31 15.9058C106.31 16.0229 106.307 16.1753 106.301 16.3628C106.295 16.5444 106.286 16.7407 106.274 16.9517C106.263 17.1567 106.251 17.356 106.239 17.5493C106.233 17.7368 106.225 17.8921 106.213 18.0151L111.469 9.8501L113.262 9.8501L113.262 19.4829L111.899 19.4829L111.899 13.5767C111.899 13.3892 111.902 13.1489 111.908 12.856C111.914 12.563 111.923 12.2759 111.935 11.9946C111.946 11.7075 111.955 11.4849 111.961 11.3267L106.723 19.4829L104.921 19.4829L104.921 9.8501L106.31 9.8501ZM117.753 9.8501L117.753 15.9058C117.753 16.0229 117.75 16.1753 117.744 16.3628C117.738 16.5444 117.729 16.7407 117.718 16.9517C117.706 17.1567 117.694 17.356 117.683 17.5493C117.677 17.7368 117.668 17.8921 117.656 18.0151L122.912 9.8501L124.705 9.8501L124.705 19.4829L123.343 19.4829L123.343 13.5767C123.343 13.3892 123.346 13.1489 123.352 12.856C123.357 12.563 123.366 12.2759 123.378 11.9946C123.39 11.7075 123.398 11.4849 123.404 11.3267L118.166 19.4829L116.364 19.4829L116.364 9.8501L117.753 9.8501Z" fill="rgb(103.943,174.25,92.4977)" fill-rule="nonzero" />
	<circle id="в наличии" cx="6.5" cy="12.5" r="6.5" fill="rgb(103.943,174.25,92.4977)" />
</svg>
