<svg viewBox="0 0 159.932 23" xmlns="http://www.w3.org/2000/svg" xmlns:xlink="http://www.w3.org/1999/xlink" width="159.931641" height="23.000000" fill="none" customFrame="#000000">
	<rect id="Property 1=Variant2" width="135.000000" height="23.000000" x="0.000000" y="0.000000" />
	<path id="Нет в наличии" d="M44.4961 19.4829L43.002 19.4829L43.002 13.4272L36.252 13.4272L36.252 19.4829L34.7578 19.4829L34.7578 6.6333L36.252 6.6333L36.252 12.1089L43.002 12.1089L43.002 6.6333L44.4961 6.6333L44.4961 19.4829ZM51.5186 9.67432C52.3389 9.67432 53.042 9.85596 53.6279 10.2192C54.2139 10.5825 54.6621 11.0923 54.9727 11.7485C55.2832 12.3989 55.4385 13.1606 55.4385 14.0337L55.4385 14.939L48.7852 14.939C48.8027 16.0698 49.084 16.9312 49.6289 17.5229C50.1738 18.1147 50.9414 18.4106 51.9316 18.4106C52.541 18.4106 53.0801 18.355 53.5488 18.2437C54.0176 18.1323 54.5039 17.9683 55.0078 17.7515L55.0078 19.0347C54.5215 19.2515 54.0381 19.4097 53.5576 19.5093C53.083 19.6089 52.5205 19.6587 51.8701 19.6587C50.9443 19.6587 50.1357 19.4712 49.4443 19.0962C48.7588 18.7153 48.2256 18.1587 47.8447 17.4263C47.4639 16.6938 47.2734 15.7974 47.2734 14.7368C47.2734 13.6997 47.4463 12.8032 47.792 12.0474C48.1436 11.2856 48.6357 10.6997 49.2686 10.2896C49.9072 9.87939 50.6572 9.67432 51.5186 9.67432ZM51.501 10.8696C50.7217 10.8696 50.1006 11.1245 49.6377 11.6343C49.1748 12.144 48.8994 12.856 48.8115 13.77L53.9092 13.77C53.9033 13.1958 53.8125 12.6919 53.6367 12.2583C53.4668 11.8188 53.2061 11.479 52.8545 11.2388C52.5029 10.9927 52.0518 10.8696 51.501 10.8696ZM64.4824 11.0894L61.3096 11.0894L61.3096 19.4829L59.8682 19.4829L59.8682 11.0894L56.7393 11.0894L56.7393 9.8501L64.4824 9.8501L64.4824 11.0894ZM78.7207 12.2671C78.7207 12.8706 78.5449 13.3423 78.1934 13.6821C77.8418 14.0161 77.3877 14.2417 76.8311 14.3589L76.8311 14.4292C77.4346 14.5112 77.9531 14.728 78.3867 15.0796C78.8262 15.4253 79.0459 15.9556 79.0459 16.6704C79.0459 17.2212 78.9141 17.7075 78.6504 18.1294C78.3867 18.5513 77.9736 18.8823 77.4111 19.1226C76.8486 19.3628 76.1162 19.4829 75.2139 19.4829L71.0654 19.4829L71.0654 9.8501L75.1787 9.8501C75.8701 9.8501 76.4795 9.9292 77.0068 10.0874C77.54 10.2397 77.959 10.4917 78.2637 10.8433C78.5684 11.1948 78.7207 11.6694 78.7207 12.2671ZM77.5254 16.6704C77.5254 16.1021 77.3086 15.6919 76.875 15.4399C76.4473 15.188 75.8232 15.062 75.0029 15.062L72.5332 15.062L72.5332 18.2964L75.0381 18.2964C75.8467 18.2964 76.4619 18.1733 76.8838 17.9272C77.3115 17.6753 77.5254 17.2563 77.5254 16.6704ZM77.2354 12.4341C77.2354 11.9771 77.0684 11.6372 76.7344 11.4146C76.4004 11.186 75.8525 11.0718 75.0908 11.0718L72.5332 11.0718L72.5332 13.8403L74.8359 13.8403C75.627 13.8403 76.2246 13.7261 76.6289 13.4976C77.0332 13.269 77.2354 12.9146 77.2354 12.4341ZM87.5449 9.8501L87.5449 13.8931L92.915 13.8931L92.915 9.8501L94.374 9.8501L94.374 19.4829L92.915 19.4829L92.915 15.1323L87.5449 15.1323L87.5449 19.4829L86.0771 19.4829L86.0771 9.8501L87.5449 9.8501ZM101.071 9.69189C102.22 9.69189 103.072 9.94971 103.629 10.4653C104.186 10.981 104.464 11.8042 104.464 12.9351L104.464 19.4829L103.4 19.4829L103.119 18.0591L103.049 18.0591C102.779 18.4106 102.498 18.7065 102.205 18.9468C101.912 19.1812 101.572 19.3599 101.186 19.4829C100.805 19.6001 100.336 19.6587 99.7793 19.6587C99.1934 19.6587 98.6719 19.5562 98.2148 19.3511C97.7637 19.146 97.4062 18.8354 97.1426 18.4194C96.8848 18.0034 96.7559 17.4761 96.7559 16.8374C96.7559 15.8765 97.1367 15.1382 97.8984 14.6226C98.6602 14.1069 99.8203 13.8257 101.379 13.7788L103.04 13.7085L103.04 13.1196C103.04 12.2876 102.861 11.7046 102.504 11.3706C102.146 11.0366 101.643 10.8696 100.992 10.8696C100.488 10.8696 100.008 10.9429 99.5508 11.0894C99.0938 11.2358 98.6602 11.4087 98.25 11.6079L97.8018 10.5005C98.2354 10.2778 98.7334 10.0874 99.2959 9.9292C99.8584 9.771 100.45 9.69189 101.071 9.69189ZM103.022 14.7368L101.555 14.7983C100.354 14.8452 99.5068 15.0415 99.0146 15.3872C98.5225 15.7329 98.2764 16.2222 98.2764 16.855C98.2764 17.4058 98.4434 17.813 98.7773 18.0767C99.1113 18.3403 99.5537 18.4722 100.104 18.4722C100.96 18.4722 101.66 18.2349 102.205 17.7603C102.75 17.2856 103.022 16.5737 103.022 15.6245L103.022 14.7368ZM114.694 19.4829L113.209 19.4829L113.209 11.0718L110.282 11.0718C110.165 12.5894 110.016 13.8901 109.834 14.9741C109.658 16.0522 109.436 16.9341 109.166 17.6196C108.902 18.2993 108.58 18.8003 108.199 19.1226C107.824 19.439 107.376 19.5972 106.854 19.5972C106.696 19.5972 106.547 19.5884 106.406 19.5708C106.266 19.5532 106.146 19.5239 106.046 19.4829L106.046 18.3755C106.122 18.3989 106.201 18.4165 106.283 18.4282C106.371 18.4399 106.462 18.4458 106.556 18.4458C106.819 18.4458 107.06 18.3374 107.276 18.1206C107.499 17.8979 107.698 17.564 107.874 17.1187C108.056 16.6733 108.217 16.1108 108.357 15.4312C108.498 14.7456 108.621 13.9399 108.727 13.0142C108.838 12.0825 108.935 11.0278 109.017 9.8501L114.694 9.8501L114.694 19.4829ZM119.159 9.8501L119.159 15.9058C119.159 16.0229 119.156 16.1753 119.15 16.3628C119.145 16.5444 119.136 16.7407 119.124 16.9517C119.112 17.1567 119.101 17.356 119.089 17.5493C119.083 17.7368 119.074 17.8921 119.062 18.0151L124.318 9.8501L126.111 9.8501L126.111 19.4829L124.749 19.4829L124.749 13.5767C124.749 13.3892 124.752 13.1489 124.758 12.856C124.764 12.563 124.772 12.2759 124.784 11.9946C124.796 11.7075 124.805 11.4849 124.811 11.3267L119.572 19.4829L117.771 19.4829L117.771 9.8501L119.159 9.8501ZM130.488 9.8501L130.488 13.313C130.488 13.9165 130.652 14.3618 130.98 14.6489C131.314 14.936 131.798 15.0796 132.431 15.0796C133.04 15.0796 133.594 14.9858 134.092 14.7983C134.59 14.6108 135.094 14.356 135.604 14.0337L135.604 9.8501L137.062 9.8501L137.062 19.4829L135.604 19.4829L135.604 15.1675C135.064 15.5132 134.534 15.7856 134.013 15.9849C133.491 16.1841 132.867 16.2837 132.141 16.2837C131.15 16.2837 130.383 16.0259 129.838 15.5103C129.299 14.9946 129.029 14.2974 129.029 13.4185L129.029 9.8501L130.488 9.8501ZM141.536 9.8501L141.536 15.9058C141.536 16.0229 141.533 16.1753 141.527 16.3628C141.521 16.5444 141.513 16.7407 141.501 16.9517C141.489 17.1567 141.478 17.356 141.466 17.5493C141.46 17.7368 141.451 17.8921 141.439 18.0151L146.695 9.8501L148.488 9.8501L148.488 19.4829L147.126 19.4829L147.126 13.5767C147.126 13.3892 147.129 13.1489 147.135 12.856C147.141 12.563 147.149 12.2759 147.161 11.9946C147.173 11.7075 147.182 11.4849 147.188 11.3267L141.949 19.4829L140.147 19.4829L140.147 9.8501L141.536 9.8501ZM152.979 9.8501L152.979 15.9058C152.979 16.0229 152.977 16.1753 152.971 16.3628C152.965 16.5444 152.956 16.7407 152.944 16.9517C152.933 17.1567 152.921 17.356 152.909 17.5493C152.903 17.7368 152.895 17.8921 152.883 18.0151L158.139 9.8501L159.932 9.8501L159.932 19.4829L158.569 19.4829L158.569 13.5767C158.569 13.3892 158.572 13.1489 158.578 12.856C158.584 12.563 158.593 12.2759 158.604 11.9946C158.616 11.7075 158.625 11.4849 158.631 11.3267L153.393 19.4829L151.591 19.4829L151.591 9.8501L152.979 9.8501Z" fill="rgb(219.938,91.0908,91.0908)" fill-rule="nonzero" />
	<circle id="в наличии" cx="6.5" cy="12.5" r="6.5" fill="rgb(219.938,91.0908,91.0908)" />
</svg>
