<svg viewBox="0 0 21 21" xmlns="http://www.w3.org/2000/svg" xmlns:xlink="http://www.w3.org/1999/xlink" width="21.000000" height="21.000000" fill="none">
	<rect id="Telegram_black 1" width="21.000000" height="21.000000" x="0.000000" y="0.000000" fill="rgb(255,255,255)" fill-opacity="0" />
	<g id="Telegram">
		<path id="Background" d="M10.5 21C16.299 21 21 16.299 21 10.5C21 4.70101 16.299 0 10.5 0C4.70101 0 0 4.70101 0 10.5C0 16.299 4.70101 21 10.5 21Z" fill="rgb(255,255,255)" fill-rule="evenodd" />
		<path id="Telegram" d="M4.81694 10.3188C7.87024 8.98843 9.90611 8.11131 10.9245 7.68741C13.8333 6.4782 14.4408 6.2682 14.8315 6.26038C14.9764 6.25757 15.1185 6.30027 15.2378 6.38248C15.3216 6.45468 15.3749 6.55585 15.3873 6.66573C15.4083 6.80239 15.4142 6.94095 15.4049 7.0789C15.2476 8.73936 14.5648 12.7528 14.2181 14.6076C14.0716 15.389 13.7825 15.6557 13.5021 15.6821C12.8946 15.7377 12.4277 15.2796 11.8417 14.8938C10.9196 14.2892 10.399 13.9171 9.50434 13.3232C8.46996 12.6395 9.14099 12.2674 9.72996 11.6559C9.88429 11.4957 12.5625 9.05778 12.6153 8.83704C12.6222 8.80444 12.6214 8.77066 12.6129 8.73843C12.6045 8.7062 12.5885 8.67641 12.5664 8.65145C12.5344 8.63142 12.4981 8.61913 12.4604 8.61557C12.4228 8.61201 12.3848 8.61727 12.3496 8.63094C12.2578 8.65113 10.7855 9.62429 7.93276 11.5504C7.51471 11.8376 7.13606 11.9776 6.7968 11.9704C6.42271 11.9616 5.70382 11.7585 5.16857 11.5797C4.51317 11.3668 3.99648 11.2545 4.0375 10.896C4.06159 10.7085 4.32141 10.5161 4.81694 10.3188Z" fill="rgb(17,17,17)" fill-rule="evenodd" />
	</g>
</svg>
