<svg viewBox="0 0 21 21" xmlns="http://www.w3.org/2000/svg" xmlns:xlink="http://www.w3.org/1999/xlink" width="21.000000" height="21.000000" fill="none">
	<rect id="VK_black 1" width="21.000000" height="21.000000" x="0.000000" y="0.000000" fill="rgb(255,255,255)" fill-opacity="0" />
	<g id="VK">
		<path id="Background" d="M10.5 21C16.299 21 21 16.299 21 10.5C21 4.70101 16.299 0 10.5 0C4.70101 0 0 4.70101 0 10.5C0 16.299 4.70101 21 10.5 21Z" fill="rgb(255,255,255)" fill-rule="evenodd" />
		<path id="VK" d="M10.885 14.371C6.81393 14.371 4.49318 11.5795 4.39551 6.93408L6.43397 6.93408C6.50137 10.3429 8.00458 11.7875 9.19523 12.0854L9.19523 6.93408L11.1165 6.93408L11.1165 9.87408C12.2886 9.74808 13.5281 8.40897 13.9442 6.93408L15.8654 6.93408C15.545 8.74985 14.2049 10.0899 13.2526 10.6408C13.9975 11.0107 14.6553 11.5345 15.1827 12.1775C15.71 12.8205 16.0949 13.5682 16.3118 14.371L14.1981 14.371C13.7439 12.9567 12.6119 11.8627 11.1165 11.7143L11.1165 14.371L10.885 14.371Z" fill="rgb(17,17,17)" fill-rule="nonzero" />
	</g>
</svg>
