<svg viewBox="0 0 21 21" xmlns="http://www.w3.org/2000/svg" xmlns:xlink="http://www.w3.org/1999/xlink" width="21.000000" height="21.000000" fill="none">
	<rect id="YouTube_black 1" width="21.000000" height="21.000000" x="0.000000" y="0.000000" fill="rgb(255,255,255)" fill-opacity="0" />
	<g id="YouTube">
		<path id="Background" d="M10.5 21C16.299 21 21 16.299 21 10.5C21 4.70101 16.299 0 10.5 0C4.70101 0 0 4.70101 0 10.5C0 16.299 4.70101 21 10.5 21Z" fill="rgb(255,255,255)" fill-rule="evenodd" />
		<path id="YouTube" d="M15.6807 7.83079C15.6188 7.60013 15.4973 7.38982 15.3284 7.22095C15.1596 7.05208 14.9493 6.9306 14.7186 6.86869C13.8708 6.64111 10.4668 6.64111 10.4668 6.64111C10.4668 6.64111 7.06287 6.64111 6.21408 6.86869C5.9837 6.93114 5.77367 7.0528 5.60488 7.22159C5.4361 7.39037 5.31444 7.6004 5.25199 7.83079C5.02441 8.67958 5.02441 10.4504 5.02441 10.4504C5.02441 10.4504 5.02441 12.2213 5.25199 13.07C5.31444 13.3004 5.4361 13.5105 5.60488 13.6792C5.77367 13.848 5.9837 13.9697 6.21408 14.0321C7.06287 14.2597 10.4668 14.2597 10.4668 14.2597C10.4668 14.2597 13.8698 14.2597 14.7186 14.0321C14.9493 13.9702 15.1596 13.8487 15.3284 13.6799C15.4973 13.511 15.6188 13.3007 15.6807 13.07C15.9083 12.2213 15.9083 10.4504 15.9083 10.4504C15.9083 10.4504 15.9083 8.67958 15.6807 7.83079ZM9.37776 12.0826L9.37776 8.81828L12.2103 10.4504L9.37776 12.0826Z" fill="rgb(17,17,17)" fill-rule="nonzero" />
	</g>
</svg>
